<svg version="1.1" id="Layer_1" xmlns="http://www.w3.org/2000/svg" xmlns:xlink="http://www.w3.org/1999/xlink" x="0px" y="0px"
	 width="100%" height="auto" viewBox="0 0 2 17 46" enable-background="new 0 0 500 500" xml:space="preserve">
<path fill="#FFFFFF" opacity="1.000000" stroke="none" 
	d="
M467.000000,501.000000 
	C311.333374,501.000000 156.166748,501.000000 1.000083,501.000000 
	C1.000056,334.333405 1.000056,167.666824 1.000028,1.000173 
	C167.666550,1.000115 334.333099,1.000115 500.999756,1.000058 
	C500.999817,167.666519 500.999817,334.333038 500.999908,500.999756 
	C489.833344,501.000000 478.666656,501.000000 467.000000,501.000000 
M108.378365,244.153702 
	C107.803543,244.293030 106.728363,244.424698 106.726105,244.572754 
	C106.640648,250.171219 106.653885,255.771164 106.653885,261.784454 
	C113.076035,261.784454 118.842178,261.784454 125.293251,261.784454 
	C125.293251,268.066345 125.293251,273.940247 125.293251,279.863708 
	C132.287872,279.863708 138.582123,279.863708 145.587708,279.863708 
	C145.587708,273.817780 145.587708,267.947174 145.587708,261.651245 
	C149.093414,261.651245 151.896576,261.651245 154.699738,261.651245 
	C157.624176,261.651245 160.548630,261.651245 163.699921,261.651245 
	C160.161041,253.267670 151.266998,249.262100 142.354599,251.679474 
	C139.473953,252.460800 136.712082,253.669342 133.856094,254.554062 
	C123.739853,257.687897 112.331680,252.803635 109.667595,243.203247 
	C115.433823,243.203247 121.200050,243.203247 127.374725,243.203247 
	C127.374725,236.894775 127.374725,231.124817 127.374725,224.940216 
	C132.105209,224.716064 136.451385,224.510132 140.797562,224.304184 
	C140.779800,223.913010 140.762039,223.521820 140.744278,223.130646 
	C135.624512,223.130646 130.504745,223.130646 124.810928,223.130646 
	C124.810928,229.353760 124.810928,235.253281 124.810928,241.366730 
	C120.584724,241.366730 116.902298,241.117737 113.282990,241.487076 
	C111.797874,241.638641 110.448898,243.124176 108.378365,244.153702 
M272.498688,237.843201 
	C272.498688,246.496002 272.498688,255.148788 272.498688,263.953918 
	C276.283661,263.953918 280.265320,264.628265 283.861145,263.740265 
	C286.731537,263.031433 290.255341,260.944275 291.400574,258.493134 
	C292.392822,256.369446 290.451385,252.875061 289.846436,250.164795 
	C290.234955,247.606537 291.829956,244.203232 290.753418,242.361328 
	C289.463867,240.154938 286.042664,238.654160 283.271912,237.996429 
	C280.116882,237.247467 276.660980,237.766006 272.498688,237.843201 
M187.351242,237.717209 
	C184.924057,237.717209 182.496872,237.717209 179.983521,237.717209 
	C179.983521,246.744308 179.983521,255.178345 179.983521,263.864227 
	C184.242157,263.864227 188.403091,264.249390 192.465042,263.779297 
	C199.609909,262.952393 204.337418,256.726257 203.658401,249.729248 
	C202.904648,241.962021 197.940216,238.099075 187.351242,237.717209 
M358.148499,247.426910 
	C355.817719,240.731277 351.448486,237.359375 345.049866,237.318207 
	C338.998627,237.279282 333.818420,240.837479 332.021332,246.267242 
	C330.204376,251.757248 331.783447,257.746826 335.960175,261.207642 
	C340.114563,264.649933 347.146088,265.369324 351.872650,262.595764 
	C357.369385,259.370300 359.308380,254.411270 358.148499,247.426910 
M231.904282,261.458954 
	C232.897842,260.353088 234.072006,259.361023 234.853378,258.121399 
	C238.048035,253.052933 237.482285,246.272934 233.629242,241.884552 
	C229.846542,237.576263 223.210510,236.136780 217.645081,238.417267 
	C212.228912,240.636581 209.181793,245.816956 209.655869,251.999619 
	C210.462967,262.525604 220.945618,267.320709 231.904282,261.458954 
M325.166687,249.020493 
	C323.680969,241.868073 319.629944,238.017990 312.919556,237.380814 
	C306.795105,236.799271 301.089661,240.141266 299.013458,245.696533 
	C296.973297,251.155304 297.787445,256.271423 301.916595,260.411743 
	C306.225525,264.732300 311.644867,265.318634 317.132721,263.218262 
	C323.139740,260.919189 325.545380,256.084290 325.166687,249.020493 
M367.762177,237.734024 
	C367.186920,238.174698 366.115387,238.609344 366.109924,239.056931 
	C366.009460,247.318665 366.036377,255.581940 366.036377,264.071381 
	C368.384460,263.966461 370.134247,263.888275 372.251404,263.793671 
	C372.251404,260.004974 372.251404,256.590485 372.251404,253.057312 
	C377.137848,252.741608 377.732697,256.842010 379.268066,259.364838 
	C381.621857,263.232422 384.252960,265.248718 389.224182,263.413788 
	C386.158325,258.724335 383.186523,254.178757 380.236694,249.666748 
	C382.967987,245.872086 385.689545,242.090942 388.460693,238.240921 
	C378.564697,234.707230 379.076019,246.868912 372.117310,248.323883 
	C372.117310,245.433777 371.928802,243.101425 372.164307,240.812698 
	C372.467926,237.862595 370.920227,237.443100 367.762177,237.734024 
M243.037643,253.673157 
	C244.153259,259.005402 247.061874,262.891998 252.561554,263.911438 
	C257.170380,264.765717 261.757812,264.492920 266.116943,258.842529 
	C263.283020,258.604889 261.443268,257.960724 259.945892,258.423706 
	C256.484436,259.494019 253.320786,259.744446 250.972992,256.596375 
	C248.322708,253.042770 248.339340,249.044281 250.612274,245.388947 
	C252.705765,242.022217 256.169464,241.783447 259.426758,243.361328 
	C262.864777,245.026779 263.684601,243.144653 264.660522,240.577316 
	C259.725159,236.789230 254.675583,236.338455 249.531754,239.018219 
	C243.953522,241.924301 242.472702,247.008942 243.037643,253.673157 
M160.587128,231.732437 
	C157.750244,232.896820 154.780502,233.819870 152.111588,235.289307 
	C149.072296,236.962662 148.833755,240.106216 150.363495,242.663773 
	C151.133499,243.951172 153.669495,244.590775 155.482056,244.772125 
	C161.759583,245.400223 167.513245,240.655746 168.850067,233.593414 
	C166.373764,232.987457 163.860809,232.372528 160.587128,231.732437 
M150.318451,228.043427 
	C149.335785,225.883850 148.353119,223.724258 146.720291,220.135803 
	C144.368362,223.561737 142.452759,225.589005 141.445557,227.996338 
	C139.898071,231.695023 141.814743,236.880936 144.536728,237.151474 
	C149.144379,237.609451 149.431610,233.742172 150.446259,230.736771 
	C150.644791,230.148697 150.483078,229.439026 150.318451,228.043427 
z"/>
<path fill="#3EAEA0" opacity="1.000000" stroke="none" 
	d="
M108.998459,243.963028 
	C112.331680,252.803635 123.739853,257.687897 133.856094,254.554062 
	C136.712082,253.669342 139.473953,252.460800 142.354599,251.679474 
	C151.266998,249.262100 160.161041,253.267670 163.699921,261.651245 
	C160.548630,261.651245 157.624176,261.651245 154.699738,261.651245 
	C151.896576,261.651245 149.093414,261.651245 145.587708,261.651245 
	C145.587708,267.947174 145.587708,273.817780 145.587708,279.863708 
	C138.582123,279.863708 132.287872,279.863708 125.293251,279.863708 
	C125.293251,273.940247 125.293251,268.066345 125.293251,261.784454 
	C118.842178,261.784454 113.076035,261.784454 106.653885,261.784454 
	C106.653885,255.771164 106.640648,250.171219 106.726105,244.572754 
	C106.728363,244.424698 107.803543,244.293030 108.686646,244.079803 
	C108.994934,244.005920 108.998459,243.963028 108.998459,243.963028 
z"/>
<path fill="#413D3E" opacity="1.000000" stroke="none" 
	d="
M272.917267,237.788422 
	C276.660980,237.766006 280.116882,237.247467 283.271912,237.996429 
	C286.042664,238.654160 289.463867,240.154938 290.753418,242.361328 
	C291.829956,244.203232 290.234955,247.606537 289.846436,250.164795 
	C290.451385,252.875061 292.392822,256.369446 291.400574,258.493134 
	C290.255341,260.944275 286.731537,263.031433 283.861145,263.740265 
	C280.265320,264.628265 276.283661,263.953918 272.498688,263.953918 
	C272.498688,255.148788 272.498688,246.496002 272.917267,237.788422 
M278.149017,248.061813 
	C280.391632,247.791168 282.665039,247.644501 284.840729,247.104385 
	C285.136932,247.030869 285.338898,244.209854 284.911499,243.994080 
	C282.923340,242.990417 280.698425,242.455719 277.993042,241.567703 
	C277.993042,244.263214 277.993042,245.738419 278.149017,248.061813 
M282.206757,259.253754 
	C283.456360,257.945862 284.705994,256.637970 285.955627,255.330078 
	C283.613800,254.248672 281.271973,253.167267 278.930115,252.085846 
	C278.641205,252.547577 278.352295,253.009308 278.063385,253.471039 
	C278.718597,255.607239 275.625641,259.543335 282.206757,259.253754 
z"/>
<path fill="#413D3E" opacity="1.000000" stroke="none" 
	d="
M187.786652,237.717529 
	C197.940216,238.099075 202.904648,241.962021 203.658401,249.729248 
	C204.337418,256.726257 199.609909,262.952393 192.465042,263.779297 
	C188.403091,264.249390 184.242157,263.864227 179.983521,263.864227 
	C179.983521,255.178345 179.983521,246.744308 179.983521,237.717209 
	C182.496872,237.717209 184.924057,237.717209 187.786652,237.717529 
M185.988861,247.704987 
	C185.988861,251.474869 185.988861,255.244736 185.988861,259.024139 
	C190.255981,259.236938 194.685745,259.964081 196.014740,255.637955 
	C196.984695,252.480499 197.032867,248.038422 195.443680,245.405151 
	C194.111984,243.198532 189.816528,242.780533 185.988907,241.228058 
	C185.988907,244.165344 185.988907,245.471283 185.988861,247.704987 
z"/>
<path fill="#413D3E" opacity="1.000000" stroke="none" 
	d="
M358.232727,247.817856 
	C359.308380,254.411270 357.369385,259.370300 351.872650,262.595764 
	C347.146088,265.369324 340.114563,264.649933 335.960175,261.207642 
	C331.783447,257.746826 330.204376,251.757248 332.021332,246.267242 
	C333.818420,240.837479 338.998627,237.279282 345.049866,237.318207 
	C351.448486,237.359375 355.817719,240.731277 358.232727,247.817856 
M351.710724,254.710876 
	C352.769135,247.724609 351.500488,244.071747 347.398987,242.962418 
	C343.679840,241.956497 340.395996,242.661758 338.486694,246.398178 
	C336.536102,250.215286 337.886810,256.211670 340.991577,258.122742 
	C344.446198,260.249146 348.183075,259.272888 351.710724,254.710876 
z"/>
<path fill="#413D3E" opacity="1.000000" stroke="none" 
	d="
M231.610168,261.683319 
	C220.945618,267.320709 210.462967,262.525604 209.655869,251.999619 
	C209.181793,245.816956 212.228912,240.636581 217.645081,238.417267 
	C223.210510,236.136780 229.846542,237.576263 233.629242,241.884552 
	C237.482285,246.272934 238.048035,253.052933 234.853378,258.121399 
	C234.072006,259.361023 232.897842,260.353088 231.610168,261.683319 
M230.592285,251.370270 
	C230.382965,247.544449 229.735443,243.982895 225.253281,242.844025 
	C220.986755,241.759949 217.347656,243.732224 216.204529,247.718414 
	C214.763565,252.743210 216.936981,257.830017 220.986420,258.910248 
	C225.833344,260.203217 228.961975,257.975037 230.592285,251.370270 
z"/>
<path fill="#413D3E" opacity="1.000000" stroke="none" 
	d="
M325.200195,249.404495 
	C325.545380,256.084290 323.139740,260.919189 317.132721,263.218262 
	C311.644867,265.318634 306.225525,264.732300 301.916595,260.411743 
	C297.787445,256.271423 296.973297,251.155304 299.013458,245.696533 
	C301.089661,240.141266 306.795105,236.799271 312.919556,237.380814 
	C319.629944,238.017990 323.680969,241.868073 325.200195,249.404495 
M307.037445,257.669983 
	C310.553650,259.785095 314.164062,260.088501 316.998810,256.874146 
	C319.951630,253.525894 319.810242,249.436737 317.705994,245.677429 
	C315.888458,242.430389 312.670166,242.051727 309.379486,242.933777 
	C304.095001,244.350250 302.819305,250.784653 307.037445,257.669983 
z"/>
<path fill="#413D3E" opacity="1.000000" stroke="none" 
	d="
M368.181519,237.727509 
	C370.920227,237.443100 372.467926,237.862595 372.164307,240.812698 
	C371.928802,243.101425 372.117310,245.433777 372.117310,248.323883 
	C379.076019,246.868912 378.564697,234.707230 388.460693,238.240921 
	C385.689545,242.090942 382.967987,245.872086 380.236694,249.666748 
	C383.186523,254.178757 386.158325,258.724335 389.224182,263.413788 
	C384.252960,265.248718 381.621857,263.232422 379.268066,259.364838 
	C377.732697,256.842010 377.137848,252.741608 372.251404,253.057312 
	C372.251404,256.590485 372.251404,260.004974 372.251404,263.793671 
	C370.134247,263.888275 368.384460,263.966461 366.036377,264.071381 
	C366.036377,255.581940 366.009460,247.318665 366.109924,239.056931 
	C366.115387,238.609344 367.186920,238.174698 368.181519,237.727509 
z"/>
<path fill="#413D3E" opacity="1.000000" stroke="none" 
	d="
M243.008942,253.292542 
	C242.472702,247.008942 243.953522,241.924301 249.531754,239.018219 
	C254.675583,236.338455 259.725159,236.789230 264.660522,240.577316 
	C263.684601,243.144653 262.864777,245.026779 259.426758,243.361328 
	C256.169464,241.783447 252.705765,242.022217 250.612274,245.388947 
	C248.339340,249.044281 248.322708,253.042770 250.972992,256.596375 
	C253.320786,259.744446 256.484436,259.494019 259.945892,258.423706 
	C261.443268,257.960724 263.283020,258.604889 266.116943,258.842529 
	C261.757812,264.492920 257.170380,264.765717 252.561554,263.911438 
	C247.061874,262.891998 244.153259,259.005402 243.008942,253.292542 
z"/>
<path fill="#86CE32" opacity="1.000000" stroke="none" 
	d="
M160.967499,231.745026 
	C163.860809,232.372528 166.373764,232.987457 168.850067,233.593414 
	C167.513245,240.655746 161.759583,245.400223 155.482056,244.772125 
	C153.669495,244.590775 151.133499,243.951172 150.363495,242.663773 
	C148.833755,240.106216 149.072296,236.962662 152.111588,235.289307 
	C154.780502,233.819870 157.750244,232.896820 160.967499,231.745026 
z"/>
<path fill="#86CE32" opacity="1.000000" stroke="none" 
	d="
M109.016464,244.004395 
	C110.448898,243.124176 111.797874,241.638641 113.282990,241.487076 
	C116.902298,241.117737 120.584724,241.366730 124.810928,241.366730 
	C124.810928,235.253281 124.810928,229.353760 124.810928,223.130646 
	C130.504745,223.130646 135.624512,223.130646 140.744278,223.130646 
	C140.762039,223.521820 140.779800,223.913010 140.797562,224.304184 
	C136.451385,224.510132 132.105209,224.716064 127.374725,224.940216 
	C127.374725,231.124817 127.374725,236.894775 127.374725,243.203247 
	C121.200050,243.203247 115.433823,243.203247 109.333023,243.583130 
	C108.998459,243.963028 108.994934,244.005920 109.016464,244.004395 
z"/>
<path fill="#86CE32" opacity="1.000000" stroke="none" 
	d="
M150.402985,228.414429 
	C150.483078,229.439026 150.644791,230.148697 150.446259,230.736771 
	C149.431610,233.742172 149.144379,237.609451 144.536728,237.151474 
	C141.814743,236.880936 139.898071,231.695023 141.445557,227.996338 
	C142.452759,225.589005 144.368362,223.561737 146.720291,220.135803 
	C148.353119,223.724258 149.335785,225.883850 150.402985,228.414429 
z"/>
<path fill="#FFFFFF" opacity="1.000000" stroke="none" 
	d="
M278.071045,247.637726 
	C277.993042,245.738419 277.993042,244.263214 277.993042,241.567703 
	C280.698425,242.455719 282.923340,242.990417 284.911499,243.994080 
	C285.338898,244.209854 285.136932,247.030869 284.840729,247.104385 
	C282.665039,247.644501 280.391632,247.791168 278.071045,247.637726 
z"/>
<path fill="#FFFFFF" opacity="1.000000" stroke="none" 
	d="
M281.754456,259.260986 
	C275.625641,259.543335 278.718597,255.607239 278.063385,253.471039 
	C278.352295,253.009308 278.641205,252.547577 278.930115,252.085846 
	C281.271973,253.167267 283.613800,254.248672 285.955627,255.330078 
	C284.705994,256.637970 283.456360,257.945862 281.754456,259.260986 
z"/>
<path fill="#FFFFFF" opacity="1.000000" stroke="none" 
	d="
M185.988892,247.241119 
	C185.988907,245.471283 185.988907,244.165344 185.988907,241.228058 
	C189.816528,242.780533 194.111984,243.198532 195.443680,245.405151 
	C197.032867,248.038422 196.984695,252.480499 196.014740,255.637955 
	C194.685745,259.964081 190.255981,259.236938 185.988861,259.024139 
	C185.988861,255.244736 185.988861,251.474869 185.988892,247.241119 
z"/>
<path fill="#FFFFFF" opacity="1.000000" stroke="none" 
	d="
M351.506287,255.070038 
	C348.183075,259.272888 344.446198,260.249146 340.991577,258.122742 
	C337.886810,256.211670 336.536102,250.215286 338.486694,246.398178 
	C340.395996,242.661758 343.679840,241.956497 347.398987,242.962418 
	C351.500488,244.071747 352.769135,247.724609 351.506287,255.070038 
z"/>
<path fill="#FFFFFF" opacity="1.000000" stroke="none" 
	d="
M230.545044,251.753326 
	C228.961975,257.975037 225.833344,260.203217 220.986420,258.910248 
	C216.936981,257.830017 214.763565,252.743210 216.204529,247.718414 
	C217.347656,243.732224 220.986755,241.759949 225.253281,242.844025 
	C229.735443,243.982895 230.382965,247.544449 230.545044,251.753326 
z"/>
<path fill="#FFFFFF" opacity="1.000000" stroke="none" 
	d="
M306.755188,257.390076 
	C302.819305,250.784653 304.095001,244.350250 309.379486,242.933777 
	C312.670166,242.051727 315.888458,242.430389 317.705994,245.677429 
	C319.810242,249.436737 319.951630,253.525894 316.998810,256.874146 
	C314.164062,260.088501 310.553650,259.785095 306.755188,257.390076 
z"/>
</svg>